<svg xmlns="http://www.w3.org/2000/svg" width="24" height="24" viewBox="0 0 24 24" id="mail"><g stroke-width=".772" transform="translate(-197.785 -13.714) scale(1.29584)"><path fill="#8080ff" d="m 161.88868,10.583356 c -5.17205,-0.008 -9.25759,1.726339 -9.25759,9.2604 0,7.524773 4.084,9.259761 9.26041,9.260405 5.17641,-6.44e-4 9.26041,-1.735632 9.26041,-9.260405 0,-7.534061 -4.08554,-9.268362 -9.25755,-9.2604 h -0.003 z"></path><g fill="#fdfbe5" stroke-width=".785" transform="translate(23.923 34.817) scale(.98253)"><path d="m 139.12182,-14.784994 -4.02929,3.701949 h 10.7363 l -4.0059,-3.701949 c -0.3978,0.3978 -0.89446,0.699033 -1.36169,0.723144 -0.47088,-0.0256 -0.97787,-0.441076 -1.33942,-0.723144 z"></path><path d="m 133.77995,-16.296532 c -0.3255,0.01155 -0.70271,-0.630093 -0.70271,-0.630093 l -2.50242,-4.334309 h 6.41026 l -2.50359,4.33634 c 0,0 -0.37604,0.616515 -0.70154,0.628062 z" transform="matrix(1.76359 0 0 1 -95.472 1.85)"></path><path d="M142.1948-15.058844l4.04424-3.991162v7.982324zM138.65-15.058844l-4.04424-3.991162v7.982324z"></path></g></g></svg>